<?xml version="1.0" encoding="utf-8"?>
<!-- Generator: Adobe Illustrator 24.1.1, SVG Export Plug-In . SVG Version: 6.00 Build 0)  -->
<svg version="1.1" id="Layer_1" xmlns="http://www.w3.org/2000/svg" xmlns:xlink="http://www.w3.org/1999/xlink" x="0px" y="0px"
	 viewBox="0 0 512 512" style="enable-background:new 0 0 512 512;" xml:space="preserve">
<g>
	<path style="fill:#ffffff" d="M505.22,230.4l-84.71,85.32c-4.87,4.87-10.97,7.31-17.68,7.31c-6.7,0-12.8-2.44-17.67-7.31l-84.1-85.32
		c-9.14-9.75-9.14-24.98,0-34.74c9.75-9.14,24.98-9.14,34.73,0l46.93,47.54c-6.09-88.37-78.61-158.45-166.98-158.45
		C123.71,85.36,48.75,162.15,48.75,256c0,93.85,74.96,170.64,167.59,170.64c34.13,0,67.04-10.36,94.46-29.86
		c10.97-7.92,26.2-4.87,34.13,6.09c7.93,10.97,4.88,26.21-6.09,34.13c-35.95,24.98-78.61,38.39-122.49,38.39
		C96.9,475.39,0,377.28,0,256C0,134.72,96.9,36.61,216.35,36.61c112.14,0,204.77,87.15,215.13,198.67l38.39-39
		c9.75-9.75,24.99-9.75,34.74,0C514.36,205.42,514.36,220.65,505.22,230.4z"/>
</g>
</svg>
